<svg width="97" height="98" viewBox="0 0 97 98" fill="none" xmlns="http://www.w3.org/2000/svg">
<path id="Vector" fill-rule="evenodd" clip-rule="evenodd" d="M49.6601 0.901293C22.8791 0.423293 0.502119 22.1543 0.495119 48.5063C0.487119 75.6163 21.8331 97.2453 48.5721 97.2053C75.0621 97.1663 96.5041 75.6183 96.5041 49.0383C96.5031 22.8903 75.1591 1.35629 49.6601 0.901293ZM48.5121 94.7883C23.1861 94.7943 2.81812 74.2593 2.81912 48.7213C2.82012 23.8413 23.5041 3.24129 48.4931 3.23229C73.9251 3.22429 94.1881 23.8863 94.1801 49.8193C94.1721 74.3023 73.3731 94.7833 48.5121 94.7883ZM72.9071 35.4413C71.9131 33.8033 70.6911 32.2143 70.1291 30.4283C69.4891 28.3963 68.9581 26.0833 69.2971 24.0463C69.8731 20.5923 72.5221 18.8773 76.1091 18.5493C56.4851 0.336292 25.6471 6.85529 14.2841 26.6443C18.6581 26.4413 22.8341 26.1763 27.0131 26.1203C27.8041 26.1093 29.1131 26.7773 29.2991 27.3973C29.7151 28.7823 28.5511 29.2653 27.3131 29.3603C26.0121 29.4623 24.7091 29.5593 23.1981 29.6743L38.1331 74.1683C38.4921 73.5813 38.6401 73.4163 38.7051 73.2233C41.4671 64.9683 44.2451 56.7183 46.9371 48.4393C47.1831 47.6843 47.0611 46.6843 46.7911 45.9083C45.3671 41.7973 43.6611 37.7753 42.4121 33.6143C41.5571 30.7653 40.4241 28.9223 37.0571 29.2523C36.4831 29.3083 35.7841 28.0743 35.1411 27.4363C35.9181 26.9733 36.6891 26.1203 37.4731 26.1083C44.3301 26.0033 51.1882 26.0053 58.0451 26.1143C58.8311 26.1273 59.6021 27.0033 60.3801 27.4783C59.6991 28.1003 59.1131 29.0323 58.3171 29.2723C57.0411 29.6573 55.6261 29.5843 54.0991 29.7203L69.0521 74.2043C71.3181 66.6803 73.4261 59.7703 75.4741 52.8443C77.3041 46.6623 76.2141 40.8873 72.9071 35.4413ZM37.1181 87.6553C37.0261 87.9223 37.0211 88.2183 36.9501 88.6623C45.4081 91.0063 53.7001 90.8373 62.1901 87.9773L49.2221 52.4573C45.0711 64.5213 41.0911 76.0873 37.1181 87.6553ZM30.5831 86.0493L11.0451 32.4533C2.23112 49.6703 8.93612 75.9393 30.5831 86.0493ZM85.0351 30.6463C84.7651 33.6403 84.9531 36.9733 84.0941 40.0083C82.0711 47.1603 79.5981 54.1893 77.2171 61.2373C74.6291 68.8973 71.9371 76.5233 69.2901 84.1643C81.7271 76.7923 88.5611 65.9113 89.6491 51.6093C90.2691 43.4693 87.4611 32.1973 85.0351 30.6463Z" fill="#2E2C2C"/>
</svg>
